<svg xmlns="http://www.w3.org/2000/svg" viewBox="0 0 1419 546" fill="black">
  <path d="M 247 0 L 247 273 L 246 274 L 245 274 L 245 275 L 244 276 L 243 276 L 243 277 L 236 284 L 236 285 L 229 292 L 229 293 L 228 294 L 227 294 L 227 295 L 226 296 L 225 296 L 225 297 L 216 306 L 216 307 L 211 312 L 211 313 L 210 314 L 209 314 L 209 315 L 208 316 L 207 316 L 207 317 L 197 327 L 197 328 L 191 334 L 191 335 L 190 336 L 189 336 L 189 337 L 188 338 L 187 338 L 187 339 L 186 340 L 185 340 L 185 341 L 178 348 L 178 349 L 171 356 L 171 357 L 170 358 L 169 358 L 169 359 L 168 360 L 167 360 L 167 361 L 158 370 L 158 371 L 153 376 L 153 377 L 152 378 L 151 378 L 151 379 L 150 380 L 149 380 L 149 381 L 139 391 L 139 392 L 133 398 L 133 399 L 132 400 L 131 400 L 131 401 L 130 402 L 129 402 L 129 403 L 128 404 L 127 404 L 127 405 L 119 413 L 119 414 L 113 420 L 113 421 L 112 422 L 111 422 L 111 423 L 110 424 L 109 424 L 109 425 L 100 434 L 100 435 L 95 440 L 95 441 L 94 442 L 93 442 L 93 443 L 92 444 L 91 444 L 91 445 L 90 446 L 89 446 L 89 447 L 81 455 L 81 456 L 75 462 L 75 463 L 74 464 L 73 464 L 73 465 L 72 466 L 71 466 L 71 467 L 70 468 L 69 468 L 69 469 L 61 477 L 61 478 L 55 484 L 55 485 L 54 486 L 53 486 L 53 487 L 52 488 L 51 488 L 51 489 L 42 498 L 42 499 L 35 506 L 35 507 L 34 508 L 33 508 L 33 509 L 32 510 L 31 510 L 31 511 L 22 520 L 22 521 L 17 526 L 17 527 L 16 528 L 15 528 L 15 529 L 14 530 L 13 530 L 13 531 L 3 541 L 3 542 L 0 545 L 94 545 L 95 544 L 100 544 L 101 543 L 103 543 L 104 542 L 105 542 L 106 541 L 107 541 L 108 540 L 109 540 L 110 539 L 111 539 L 113 537 L 114 537 L 125 526 L 125 525 L 136 514 L 136 513 L 146 503 L 146 502 L 156 492 L 156 491 L 166 481 L 166 480 L 176 470 L 176 469 L 187 458 L 187 457 L 197 447 L 197 446 L 207 436 L 207 435 L 217 425 L 217 424 L 227 414 L 227 413 L 238 402 L 238 401 L 246 393 L 247 394 L 247 545 L 1418 545 L 1418 0 Z " />
</svg>