<svg width="214" height="215" viewBox="0 0 214 215" fill="none" xmlns="http://www.w3.org/2000/svg">
<path d="M182.489 169.059V214.442H122.331V169.059H182.489ZM121.628 169.059V181.724H61.4695V169.059H121.628ZM30.863 90.9598V91.3113H51.6189V169.059H61.1179V181.724H0.959702V90.9598H30.863ZM213.095 76.5359V168.708H182.841V123.325H121.979V91.3113H152.937V76.5359H213.095ZM182.489 123.678V168.708H122.331V123.678H182.489ZM121.628 91.3113V168.708H61.4695V91.3113H121.628ZM61.1179 91.3113V168.708H51.9704V91.3113H61.1179ZM152.586 76.5359V90.9598H121.979V90.6082H92.4285V76.5359H152.586ZM92.0759 76.5359V90.6082H51.9704V76.5359H92.0759ZM92.0759 0.195129V76.1844H51.6189V90.6082H31.2146V0.195129H92.0759ZM152.586 0.195129V76.1844H92.4285V0.195129H152.586Z" fill="white" stroke="black" stroke-width="0.351801"/>
</svg>
