<svg width="286" height="292" viewBox="0 0 286 292" fill="none" xmlns="http://www.w3.org/2000/svg">
<rect x="36" y="81" width="187" height="82" fill="white"/>
<rect x="36" y="162" width="93" height="46" fill="white"/>
<rect x="222" width="63" height="127" fill="white"/>
<rect x="222" y="163" width="51" height="31" fill="white"/>
<rect x="-27" y="206" width="64" height="46" fill="white"/>
<rect x="-3" y="252" width="40" height="40" fill="white"/>
<mask id="mask0_58_56" style="mask-type:alpha" maskUnits="userSpaceOnUse" x="36" y="0" width="250" height="209">
<rect x="36" y="163" width="93" height="46" fill="#0051FF"/>
<rect x="220" y="163" width="51" height="31" fill="#0051FF"/>
<rect x="223" width="63" height="127" fill="#0051FF"/>
<rect x="36" y="81" width="187" height="82" fill="#0051FF"/>
</mask>
<g mask="url(#mask0_58_56)">
<path d="M-113.055 101.286H-79.7932V108.784H-113.055V101.286ZM-114.419 186.759H-71.8867V194.666H-114.419V186.759ZM-120.689 131.686H-75.022V138.502H-120.689V131.686ZM-124.915 116.282H-116.054V138.638C-116.054 142.909 -116.282 147.59 -116.736 152.679C-117.1 157.768 -117.872 162.948 -119.053 168.219C-120.144 173.491 -121.78 178.625 -123.961 183.624C-126.142 188.622 -128.959 193.212 -132.413 197.392C-132.958 196.756 -133.685 196.029 -134.594 195.211C-135.412 194.393 -136.275 193.575 -137.184 192.757C-138.002 192.03 -138.774 191.485 -139.501 191.121C-135.23 185.941 -132.095 180.261 -130.095 174.081C-128.005 167.901 -126.642 161.722 -126.006 155.542C-125.279 149.362 -124.915 143.682 -124.915 138.502V116.282ZM-120.008 116.282H-70.7961V154.315H-120.144V146.545H-80.0659V123.915H-120.008V116.282ZM-118.236 162.63H-68.7513V199.3H-77.7484V170.537H-109.238V200.255H-118.236V162.63ZM-59.4815 91.4713H-49.8028V167.129H-59.4815V91.4713ZM-28.9458 77.7029H-18.9945V187.032C-18.9945 190.485 -19.4489 193.075 -20.3577 194.802C-21.2665 196.529 -22.766 197.801 -24.8562 198.619C-27.0374 199.437 -30.0364 199.982 -33.8534 200.255C-37.6703 200.527 -42.6233 200.618 -48.7123 200.527C-48.8031 199.619 -49.0758 198.528 -49.5302 197.256C-49.8937 196.074 -50.3481 194.847 -50.8934 193.575C-51.3478 192.303 -51.8476 191.212 -52.3929 190.303C-47.6671 190.394 -43.4867 190.44 -39.8514 190.44C-36.1254 190.531 -33.6262 190.531 -32.3538 190.44C-31.1724 190.349 -30.309 190.076 -29.7638 189.622C-29.2185 189.167 -28.9458 188.304 -28.9458 187.032V77.7029ZM-103.377 76.3397H-97.7875V78.6572H-94.6521V81.5199C-98.4691 87.0636 -103.558 93.1526 -109.92 99.7868C-116.191 106.421 -123.87 112.692 -132.958 118.599C-133.322 117.872 -133.912 117.054 -134.73 116.145C-135.457 115.236 -136.23 114.373 -137.048 113.555C-137.866 112.737 -138.638 112.056 -139.365 111.51C-133.731 108.148 -128.641 104.467 -124.097 100.468C-119.462 96.4697 -115.418 92.3801 -111.965 88.1996C-108.42 84.0191 -105.558 80.0658 -103.377 76.3397ZM-101.468 76.3397H-94.1068C-90.6534 78.8844 -87.0636 81.7471 -83.3376 84.9279C-79.5206 88.0178 -75.9308 91.0623 -72.5683 94.0614C-69.1148 97.0604 -66.2521 99.7868 -63.9801 102.241L-70.6598 109.874C-72.8409 107.512 -75.5673 104.785 -78.839 101.695C-82.0198 98.5145 -85.4278 95.3337 -89.063 92.1529C-92.6982 88.8812 -96.1971 86.0185 -99.5597 83.5647H-101.468V76.3397ZM35.5336 92.2892H100.695V101.15H35.5336V92.2892ZM18.9025 118.735H106.693V127.46H18.9025V118.735ZM37.851 76.885L47.3934 79.0661C45.0305 86.0639 41.986 92.789 38.26 99.2415C34.5339 105.694 30.626 111.147 26.5364 115.6C25.9003 115.055 25.0369 114.464 23.9463 113.828C22.9467 113.192 21.9015 112.601 20.811 112.056C19.7204 111.419 18.7207 110.92 17.8119 110.556C22.1742 106.376 26.082 101.332 29.5355 95.4246C32.9889 89.4265 35.7608 83.2466 37.851 76.885ZM57.89 75.1129H67.9777V124.461H57.89V75.1129ZM13.0407 128.959V177.217H3.08937V138.502H-15.9954V128.959H13.0407ZM13.0407 172.718C16.3124 177.716 20.8564 181.443 26.6727 183.896C32.4891 186.35 39.3505 187.713 47.2571 187.986C50.9832 188.168 55.4817 188.304 60.7528 188.395C66.1147 188.395 71.7038 188.349 77.5201 188.259C83.4273 188.168 89.1073 188.031 94.5601 187.85C100.013 187.668 104.784 187.441 108.874 187.168C108.419 187.895 107.965 188.895 107.511 190.167C107.056 191.439 106.647 192.712 106.284 193.984C105.92 195.347 105.648 196.529 105.466 197.528C101.74 197.71 97.332 197.846 92.2427 197.937C87.1534 198.028 81.8824 198.074 76.4296 198.074C70.9768 198.164 65.6603 198.164 60.4801 198.074C55.3908 198.074 50.9832 198.028 47.2571 197.937C38.3508 197.574 30.7169 196.12 24.3553 193.575C18.0846 191.03 12.7681 187.032 8.40586 181.579C5.13417 184.487 1.77161 187.395 -1.68183 190.303C-5.13527 193.302 -8.72504 196.347 -12.4511 199.437L-17.7676 188.94C-14.4959 186.759 -10.997 184.26 -7.27095 181.443C-3.45399 178.534 0.226649 175.626 3.77097 172.718H13.0407ZM-14.4959 84.519L-6.99832 78.3845C-3.99927 80.293 -0.954791 82.5196 2.13513 85.0642C5.22505 87.518 8.04234 90.0172 10.587 92.5618C13.2225 95.1065 15.3582 97.4694 16.994 99.6505L8.81482 106.466C7.45161 104.285 5.45225 101.877 2.81673 99.2415C0.27209 96.606 -2.54519 94.0159 -5.63511 91.4713C-8.63416 88.8358 -11.5878 86.5183 -14.4959 84.519ZM41.259 146.681V168.356H86.3809V146.681H41.259ZM31.3076 138.229H96.8776V176.944H31.3076V138.229ZM175.534 96.5151C174.625 103.604 173.444 111.01 171.99 118.735C170.627 126.46 168.855 133.958 166.673 141.228C163.947 150.589 160.903 158.404 157.54 164.675C154.268 170.946 150.724 175.672 146.907 178.852C143.09 182.033 139.091 183.624 134.911 183.624C130.912 183.624 127.05 182.17 123.324 179.261C119.598 176.353 116.553 172.173 114.19 166.72C111.827 161.176 110.646 154.678 110.646 147.226C110.646 139.774 112.145 132.731 115.144 126.097C118.234 119.462 122.46 113.601 127.822 108.511C133.275 103.331 139.637 99.2415 146.907 96.2425C154.177 93.2434 161.948 91.7439 170.218 91.7439C178.215 91.7439 185.395 93.0617 191.756 95.6972C198.209 98.3327 203.707 101.968 208.251 106.603C212.795 111.147 216.294 116.463 218.748 122.552C221.202 128.55 222.428 135.003 222.428 141.91C222.428 151.452 220.384 159.859 216.294 167.129C212.295 174.399 206.479 180.307 198.845 184.851C191.302 189.395 182.123 192.394 171.308 193.848L164.901 183.76C167.082 183.487 169.173 183.215 171.172 182.942C173.171 182.669 174.989 182.351 176.625 181.988C180.987 180.988 185.213 179.443 189.303 177.353C193.483 175.172 197.209 172.445 200.481 169.174C203.753 165.811 206.343 161.858 208.251 157.314C210.25 152.679 211.25 147.408 211.25 141.501C211.25 135.957 210.341 130.822 208.524 126.097C206.706 121.28 204.025 117.054 200.481 113.419C196.937 109.784 192.62 106.921 187.53 104.831C182.441 102.74 176.625 101.695 170.081 101.695C162.629 101.695 155.859 103.058 149.77 105.785C143.772 108.511 138.637 112.101 134.366 116.554C130.185 120.916 126.959 125.733 124.687 131.004C122.415 136.184 121.279 141.274 121.279 146.272C121.279 151.997 122.006 156.723 123.46 160.449C125.005 164.084 126.823 166.765 128.913 168.492C131.094 170.219 133.23 171.082 135.32 171.082C137.501 171.082 139.728 170.037 142 167.947C144.272 165.766 146.589 162.312 148.952 157.587C151.315 152.77 153.632 146.545 155.904 138.911C157.904 132.367 159.585 125.415 160.948 118.054C162.402 110.692 163.447 103.467 164.083 96.3788L175.534 96.5151ZM231.289 104.831H337.074V115.327H231.289V104.831ZM333.12 104.831H343.617C343.617 104.831 343.617 105.194 343.617 105.921C343.617 106.648 343.571 107.421 343.481 108.239C343.481 109.057 343.435 109.738 343.344 110.283C342.617 124.37 341.845 136.366 341.027 146.272C340.3 156.178 339.436 164.357 338.437 170.81C337.528 177.171 336.483 182.215 335.301 185.941C334.211 189.576 332.893 192.212 331.348 193.848C329.712 195.847 327.986 197.21 326.168 197.937C324.441 198.664 322.26 199.164 319.625 199.437C317.353 199.619 314.172 199.664 310.082 199.573C306.083 199.482 301.994 199.346 297.813 199.164C297.723 197.619 297.359 195.847 296.723 193.848C296.178 191.848 295.36 190.122 294.269 188.668C298.995 189.031 303.312 189.304 307.219 189.485C311.218 189.576 314.081 189.622 315.808 189.622C317.262 189.622 318.443 189.485 319.352 189.213C320.352 188.94 321.26 188.349 322.078 187.441C323.351 186.259 324.487 183.942 325.486 180.488C326.577 176.944 327.531 172.036 328.349 165.766C329.258 159.404 330.076 151.407 330.803 141.773C331.621 132.14 332.393 120.553 333.12 107.012V104.831ZM275.866 75.3855H286.499V98.9689C286.499 105.24 286.226 111.874 285.681 118.872C285.136 125.778 283.954 132.867 282.137 140.138C280.319 147.317 277.547 154.497 273.821 161.676C270.095 168.856 265.097 175.808 258.826 182.533C252.555 189.167 244.649 195.347 235.106 201.073C234.561 200.164 233.834 199.21 232.925 198.21C232.016 197.21 231.062 196.211 230.062 195.211C229.063 194.302 228.108 193.575 227.2 193.03C236.288 187.577 243.785 181.761 249.692 175.581C255.69 169.401 260.416 163.039 263.87 156.496C267.414 149.862 270.004 143.227 271.64 136.593C273.367 129.959 274.503 123.461 275.048 117.099C275.593 110.738 275.866 104.694 275.866 98.9689V75.3855Z" fill="black"/>
<path d="M-66.7385 -62.8039H-29.9111V-54.5026H-66.7385V-62.8039ZM-68.2478 31.8304H-21.157V40.5845H-68.2478V31.8304ZM-75.1906 -29.1461H-24.6285V-21.5995H-75.1906V-29.1461ZM-79.8695 -46.2014H-70.059V-21.4485C-70.059 -16.7193 -70.3105 -11.5373 -70.8136 -5.90254C-71.2161 -0.267752 -72.0714 5.46766 -73.3795 11.3037C-74.5869 17.1397 -76.3981 22.8248 -78.813 28.359C-81.2279 33.8932 -84.3472 38.9745 -88.1708 43.6031C-88.7745 42.8988 -89.5795 42.0938 -90.5857 41.1882C-91.4913 40.2826 -92.4472 39.377 -93.4534 38.4714C-94.359 37.6665 -95.2143 37.0627 -96.0192 36.6603C-91.29 30.9248 -87.8186 24.636 -85.6049 17.7938C-83.2907 10.9515 -81.7813 4.10927 -81.077 -2.73297C-80.272 -9.57522 -79.8695 -15.864 -79.8695 -21.5995V-46.2014ZM-74.436 -46.2014H-19.9496V-4.09136H-74.5869V-12.6945H-30.2129V-37.7492H-74.436V-46.2014ZM-72.4739 5.11548H-17.6856V45.7162H-27.6471V13.8695H-62.5124V46.7727H-72.4739V5.11548ZM-7.42223 -73.671H3.29394V10.0962H-7.42223V-73.671ZM26.3865 -88.9151H37.4045V32.1323C37.4045 35.9559 36.9014 38.8236 35.8952 40.7354C34.889 42.6472 33.2288 44.0559 30.9145 44.9615C28.4996 45.8671 25.1791 46.4708 20.953 46.7727C16.7269 47.0746 11.243 47.1752 4.5014 47.0746C4.40077 46.0683 4.0989 44.8609 3.5958 43.4522C3.19331 42.1441 2.69021 40.7857 2.08648 39.377C1.58338 37.9683 1.02996 36.7609 0.426234 35.7547C5.65854 35.8553 10.2871 35.9056 14.312 35.9056C18.4374 36.0062 21.2045 36.0062 22.6132 35.9056C23.9213 35.805 24.8772 35.5031 25.4809 35C26.0847 34.4969 26.3865 33.541 26.3865 32.1323V-88.9151ZM-56.0223 -90.4244H-49.8341V-87.8586H-46.3627V-84.689C-50.5887 -78.5511 -56.2235 -71.8095 -63.267 -64.4641C-70.2099 -57.1188 -78.7124 -50.1759 -88.7745 -43.6355C-89.177 -44.4405 -89.831 -45.3461 -90.7366 -46.3523C-91.5416 -47.3585 -92.3969 -48.3144 -93.3025 -49.22C-94.2081 -50.1256 -95.0633 -50.8802 -95.8683 -51.484C-89.6298 -55.207 -83.995 -59.2821 -78.9639 -63.7095C-73.8323 -68.1368 -69.3546 -72.6647 -65.531 -77.2933C-61.6068 -81.9219 -58.4372 -86.2989 -56.0223 -90.4244ZM-53.9093 -90.4244H-45.7589C-41.9353 -87.607 -37.9608 -84.4374 -33.8353 -80.9157C-29.6092 -77.4946 -25.6347 -74.1238 -21.9117 -70.8033C-18.0881 -67.4828 -14.9185 -64.4641 -12.403 -61.7473L-19.7986 -53.2952C-22.2136 -55.9113 -25.2322 -58.9299 -28.8546 -62.3511C-32.3763 -65.8728 -36.1496 -69.3946 -40.1744 -72.9163C-44.1993 -76.5387 -48.0732 -79.7082 -51.7962 -82.425H-53.9093V-90.4244ZM97.7773 -72.7654H169.923V-62.9548H97.7773V-72.7654ZM79.3636 -43.4846H176.564V-33.8249H79.3636V-43.4846ZM100.343 -89.8207L110.908 -87.4058C108.292 -79.6579 104.921 -72.212 100.796 -65.0678C96.6705 -57.9237 92.3437 -51.8865 87.8158 -46.956C87.1114 -47.5597 86.1555 -48.2138 84.9481 -48.9181C83.8413 -49.6225 82.6841 -50.2765 81.4766 -50.8802C80.2692 -51.5846 79.1624 -52.138 78.1561 -52.5405C82.986 -57.1691 87.3127 -62.7536 91.1363 -69.2939C94.9599 -75.9349 98.0288 -82.7772 100.343 -89.8207ZM122.53 -91.7828H133.699V-37.1454H122.53V-91.7828ZM72.8735 -32.1647V21.2652H61.8555V-21.5995H40.725V-32.1647H72.8735ZM72.8735 16.2844C76.4959 21.8186 81.527 25.9441 87.9667 28.6609C94.4065 31.3776 102.003 32.887 110.757 33.1888C114.883 33.3901 119.864 33.541 125.7 33.6416C131.636 33.6416 137.825 33.5913 144.264 33.4907C150.805 33.3901 157.094 33.2391 163.131 33.0379C169.168 32.8366 174.451 32.5851 178.979 32.2832C178.476 33.0882 177.972 34.195 177.469 35.6037C176.966 37.0124 176.513 38.4211 176.111 39.8298C175.708 41.3391 175.407 42.6472 175.205 43.754C171.08 43.9553 166.2 44.1062 160.565 44.2068C154.93 44.3075 149.094 44.3578 143.057 44.3578C137.02 44.4584 131.133 44.4584 125.398 44.3578C119.763 44.3578 114.883 44.3075 110.757 44.2068C100.897 43.8044 92.4444 42.1944 85.4009 39.377C78.458 36.5596 72.5717 32.1323 67.7418 26.095C64.1195 29.3149 60.3965 32.5348 56.5729 35.7547C52.7493 39.0752 48.7747 42.446 44.6493 45.8671L38.7629 34.2453C42.3853 31.8304 46.2592 29.0633 50.3847 25.9441C54.6108 22.7242 58.6859 19.5043 62.6102 16.2844H72.8735ZM42.3853 -81.3685L50.6865 -88.1604C54.007 -86.0474 57.3779 -83.5822 60.799 -80.7648C64.2201 -78.048 67.3394 -75.2809 70.1568 -72.4635C73.0748 -69.6461 75.4394 -67.03 77.2506 -64.615L68.1946 -57.0685C66.6853 -59.4834 64.4717 -62.1498 61.5536 -65.0678C58.7362 -67.9859 55.617 -70.8536 52.1959 -73.671C48.8754 -76.589 45.6052 -79.1548 42.3853 -81.3685ZM104.116 -12.5435V11.4546H154.075V-12.5435H104.116ZM93.0984 -21.9013H165.697V20.9633H93.0984V-21.9013ZM252.784 -68.0865C251.778 -60.238 250.47 -52.0374 248.86 -43.4846C247.351 -34.9318 245.389 -26.6305 242.974 -18.5808C239.955 -8.21683 236.584 0.436597 232.861 7.37946C229.239 14.3223 225.315 19.5546 221.089 23.0764C216.863 26.5981 212.435 28.359 207.807 28.359C203.379 28.359 199.103 26.7491 194.977 23.5292C190.852 20.3093 187.481 15.6807 184.865 9.64344C182.249 3.50554 180.941 -3.68888 180.941 -11.9398C180.941 -20.1908 182.601 -27.9889 185.922 -35.3343C189.343 -42.6796 194.022 -49.1697 199.958 -54.8045C205.995 -60.5399 213.039 -65.0678 221.089 -68.3884C229.138 -71.7089 237.741 -73.3691 246.898 -73.3691C255.753 -73.3691 263.702 -71.9101 270.745 -68.9921C277.889 -66.0741 283.977 -62.0492 289.008 -56.9175C294.039 -51.8865 297.913 -46.0001 300.63 -39.2585C303.347 -32.6175 304.705 -25.4734 304.705 -17.8262C304.705 -7.26093 302.441 2.04654 297.913 10.0962C293.486 18.1459 287.046 24.6863 278.594 29.7174C270.242 34.7484 260.079 38.0689 248.105 39.6789L241.012 28.5099C243.427 28.2081 245.741 27.9062 247.955 27.6043C250.168 27.3025 252.181 26.9503 253.992 26.5478C258.822 25.441 263.501 23.7304 268.028 21.4161C272.657 19.0012 276.783 15.9826 280.405 12.3602C284.027 8.63723 286.895 4.2602 289.008 -0.770859C291.222 -5.90254 292.328 -11.7386 292.328 -18.279C292.328 -24.4169 291.322 -30.102 289.31 -35.3343C287.297 -40.6672 284.329 -45.3461 280.405 -49.3709C276.481 -53.3958 271.701 -56.5653 266.066 -58.8796C260.432 -61.1939 253.992 -62.3511 246.747 -62.3511C238.496 -62.3511 231 -60.8418 224.258 -57.8231C217.617 -54.8045 211.932 -50.8299 207.203 -45.8995C202.574 -41.0697 199.002 -35.7367 196.487 -29.9007C193.971 -24.1653 192.713 -18.5305 192.713 -12.9963C192.713 -6.6572 193.518 -1.4249 195.128 2.70057C196.839 6.72543 198.851 9.69375 201.166 11.6056C203.581 13.5174 205.945 14.4733 208.259 14.4733C210.674 14.4733 213.14 13.3161 215.655 11.0018C218.171 8.58692 220.736 4.76331 223.353 -0.468995C225.969 -5.80192 228.535 -12.6945 231.05 -21.1467C233.264 -28.3914 235.125 -36.0889 236.635 -44.2392C238.245 -52.3896 239.402 -60.389 240.106 -68.2374L252.784 -68.0865ZM314.515 -58.8796H431.639V-47.2579H314.515V-58.8796ZM427.262 -58.8796H438.883C438.883 -58.8796 438.883 -58.4772 438.883 -57.6722C438.883 -56.8672 438.833 -56.0119 438.732 -55.1063C438.732 -54.2007 438.682 -53.4461 438.581 -52.8424C437.777 -37.2461 436.921 -23.9641 436.016 -12.9963C435.211 -2.02862 434.255 7.02729 433.148 14.1714C432.142 21.2149 430.985 26.7994 429.677 30.9248C428.469 34.9497 427.01 37.8677 425.299 39.6789C423.488 41.8926 421.576 43.4019 419.564 44.2068C417.652 45.0118 415.237 45.5652 412.319 45.8671C409.804 46.0683 406.282 46.1186 401.754 46.018C397.327 45.9174 392.799 45.7665 388.17 45.5652C388.07 43.8547 387.667 41.8926 386.963 39.6789C386.359 37.4652 385.453 35.5534 384.246 33.9435C389.478 34.346 394.258 34.6478 398.585 34.8491C403.012 34.9497 406.181 35 408.093 35C409.703 35 411.011 34.8491 412.017 34.5472C413.124 34.2453 414.131 33.5913 415.036 32.5851C416.445 31.277 417.703 28.7112 418.809 24.8876C420.017 20.9633 421.073 15.5298 421.979 8.58692C422.985 1.54343 423.891 -7.31124 424.696 -17.9771C425.601 -28.6429 426.457 -41.4722 427.262 -56.4647V-58.8796ZM363.87 -91.4809H375.643V-65.3697C375.643 -58.4268 375.341 -51.0815 374.737 -43.3337C374.134 -35.6864 372.825 -27.838 370.813 -19.7883C368.801 -11.8392 365.732 -3.89012 361.606 4.05896C357.481 12.008 351.947 19.7056 345.004 27.1515C338.061 34.4969 329.307 41.3391 318.742 47.6783C318.138 46.6721 317.333 45.6155 316.327 44.5087C315.32 43.4019 314.264 42.295 313.157 41.1882C312.05 40.182 310.994 39.377 309.988 38.7733C320.05 32.736 328.351 26.2963 334.891 19.454C341.532 12.6118 346.765 5.56828 350.588 -1.67645C354.512 -9.0218 357.38 -16.3672 359.191 -23.7125C361.103 -31.0579 362.361 -38.2523 362.965 -45.2958C363.568 -52.3393 363.87 -59.0306 363.87 -65.3697V-91.4809Z" fill="black"/>
</g>
</svg>
